<?xml version="1.0" encoding="utf-8"?>
<!-- Generator: Adobe Illustrator 15.0.0, SVG Export Plug-In . SVG Version: 6.00 Build 0)  -->
<!DOCTYPE svg PUBLIC "-//W3C//DTD SVG 1.1//EN" "http://www.w3.org/Graphics/SVG/1.1/DTD/svg11.dtd">
<svg version="1.1" id="图层_1" xmlns="http://www.w3.org/2000/svg" xmlns:xlink="http://www.w3.org/1999/xlink" x="0px" y="0px"
	 width="152.012px" height="26.025px" viewBox="0 0 152.012 26.025" enable-background="new 0 0 152.012 26.025"
	 xml:space="preserve">
<rect x="-0.001" y="5.025" fill="#101111" width="2.289" height="16"/>
<rect x="18.306" y="5.025" fill="#101111" width="2.289" height="16"/>
<rect x="34.325" y="5.025" fill="#101111" width="2.289" height="16"/>
<rect x="75.484" y="5.025" fill="#101111" width="2.289" height="16"/>
<rect x="126.271" y="0.171" fill="#101111" width="2.289" height="20.788"/>
<rect x="127.416" y="18.669" fill="#101111" width="24.596" height="2.289"/>
<rect x="144.75" y="5.013" fill="#101111" width="2.289" height="21.012"/>
<polygon fill="#101111" points="133.183,16.07 131.886,14.184 152.08,0 152.08,2.849 "/>
<rect x="121.271" y="5.013" fill="#101111" width="25.759" height="2.289"/>
<rect x="75.572" y="18.736" fill="#101111" width="16" height="2.289"/>
<rect x="25.171" y="5.025" fill="#101111" width="20.597" height="2.289"/>
<rect x="101.474" y="5.025" fill="#101111" width="15.243" height="2.289"/>
<rect y="11.13" fill="#101111" width="15.281" height="2.289"/>
<polygon fill="#101111" points="98.409,10.881 98.409,5.024 96.121,5.024 96.121,13.167 114.429,13.167 114.429,18.738 
	96.121,18.738 96.121,21.024 116.717,21.024 116.717,10.881 "/>
<rect x="68.653" y="5.025" fill="#101111" width="2.289" height="16"/>
<polygon fill="#101111" points="67.488,5.024 59.298,13.524 60.663,15.396 70.646,5.053 70.615,5.024 "/>
<rect x="50.346" y="5.025" fill="#101111" width="2.289" height="16"/>
<polygon fill="#101111" points="53.8,5.024 61.99,13.524 60.625,15.396 50.642,5.053 50.673,5.024 "/>
</svg>
